<mxfile host="app.diagrams.net" modified="2021-02-04T06:57:24.837Z" agent="5.0 (Windows NT 10.0; Win64; x64) AppleWebKit/537.36 (KHTML, like Gecko) Chrome/88.0.4324.104 Safari/537.36" etag="EcW0R_iz7q4awEP2zmWH" version="14.2.9" type="github">
  <diagram id="UE8eQSSXFoSJiq7shUUV" name="Page-1">
    <mxGraphModel dx="868" dy="450" grid="1" gridSize="10" guides="1" tooltips="1" connect="1" arrows="1" fold="1" page="1" pageScale="1" pageWidth="827" pageHeight="1169" math="0" shadow="0">
      <root>
        <mxCell id="0" />
        <mxCell id="1" parent="0" />
        <mxCell id="14kvWUV_quERHJc_PtYc-1" value="oa数据库" style="rounded=0;whiteSpace=wrap;html=1;" parent="1" vertex="1">
          <mxGeometry x="110" y="160" width="120" height="60" as="geometry" />
        </mxCell>
        <mxCell id="14kvWUV_quERHJc_PtYc-2" value="oa系统web端" style="rounded=0;whiteSpace=wrap;html=1;" parent="1" vertex="1">
          <mxGeometry x="110" y="280" width="120" height="60" as="geometry" />
        </mxCell>
        <mxCell id="14kvWUV_quERHJc_PtYc-5" value="DXP" style="rounded=0;whiteSpace=wrap;html=1;" parent="1" vertex="1">
          <mxGeometry x="354" y="280" width="120" height="60" as="geometry" />
        </mxCell>
        <mxCell id="14kvWUV_quERHJc_PtYc-6" value="客户服务系统" style="rounded=0;whiteSpace=wrap;html=1;" parent="1" vertex="1">
          <mxGeometry x="590" y="280" width="120" height="60" as="geometry" />
        </mxCell>
        <mxCell id="14kvWUV_quERHJc_PtYc-7" value="客服数据库" style="rounded=0;whiteSpace=wrap;html=1;" parent="1" vertex="1">
          <mxGeometry x="590" y="160" width="120" height="60" as="geometry" />
        </mxCell>
        <mxCell id="14kvWUV_quERHJc_PtYc-26" style="edgeStyle=orthogonalEdgeStyle;rounded=0;orthogonalLoop=1;jettySize=auto;html=1;exitX=1;exitY=0.5;exitDx=0;exitDy=0;entryX=0;entryY=0.5;entryDx=0;entryDy=0;startSize=3;endSize=3;" parent="1" source="14kvWUV_quERHJc_PtYc-24" target="14kvWUV_quERHJc_PtYc-5" edge="1">
          <mxGeometry relative="1" as="geometry" />
        </mxCell>
        <mxCell id="14kvWUV_quERHJc_PtYc-29" value="" style="edgeStyle=orthogonalEdgeStyle;rounded=0;orthogonalLoop=1;jettySize=auto;html=1;startSize=3;endSize=3;" parent="1" source="14kvWUV_quERHJc_PtYc-24" target="14kvWUV_quERHJc_PtYc-2" edge="1">
          <mxGeometry relative="1" as="geometry" />
        </mxCell>
        <mxCell id="14kvWUV_quERHJc_PtYc-24" value="websevice" style="text;html=1;strokeColor=none;fillColor=none;align=center;verticalAlign=middle;whiteSpace=wrap;rounded=0;" parent="1" vertex="1">
          <mxGeometry x="270" y="300" width="40" height="20" as="geometry" />
        </mxCell>
        <mxCell id="14kvWUV_quERHJc_PtYc-32" value="" style="edgeStyle=orthogonalEdgeStyle;rounded=0;orthogonalLoop=1;jettySize=auto;html=1;startSize=3;endSize=3;" parent="1" source="14kvWUV_quERHJc_PtYc-30" target="14kvWUV_quERHJc_PtYc-6" edge="1">
          <mxGeometry relative="1" as="geometry" />
        </mxCell>
        <mxCell id="14kvWUV_quERHJc_PtYc-33" value="" style="edgeStyle=orthogonalEdgeStyle;rounded=0;orthogonalLoop=1;jettySize=auto;html=1;startSize=3;endSize=3;" parent="1" source="14kvWUV_quERHJc_PtYc-30" target="14kvWUV_quERHJc_PtYc-5" edge="1">
          <mxGeometry relative="1" as="geometry" />
        </mxCell>
        <mxCell id="14kvWUV_quERHJc_PtYc-30" value="webservice" style="text;html=1;strokeColor=none;fillColor=none;align=center;verticalAlign=middle;whiteSpace=wrap;rounded=0;" parent="1" vertex="1">
          <mxGeometry x="510" y="300" width="40" height="20" as="geometry" />
        </mxCell>
        <mxCell id="14kvWUV_quERHJc_PtYc-35" value="" style="edgeStyle=orthogonalEdgeStyle;rounded=0;orthogonalLoop=1;jettySize=auto;html=1;startSize=3;endSize=3;" parent="1" source="14kvWUV_quERHJc_PtYc-34" target="14kvWUV_quERHJc_PtYc-1" edge="1">
          <mxGeometry relative="1" as="geometry" />
        </mxCell>
        <mxCell id="14kvWUV_quERHJc_PtYc-36" value="" style="edgeStyle=orthogonalEdgeStyle;rounded=0;orthogonalLoop=1;jettySize=auto;html=1;startSize=3;endSize=3;" parent="1" source="14kvWUV_quERHJc_PtYc-34" target="14kvWUV_quERHJc_PtYc-2" edge="1">
          <mxGeometry relative="1" as="geometry" />
        </mxCell>
        <mxCell id="14kvWUV_quERHJc_PtYc-34" value="写入读取" style="text;html=1;strokeColor=none;fillColor=none;align=center;verticalAlign=middle;whiteSpace=wrap;rounded=0;" parent="1" vertex="1">
          <mxGeometry x="150" y="240" width="40" height="20" as="geometry" />
        </mxCell>
        <mxCell id="14kvWUV_quERHJc_PtYc-38" value="" style="edgeStyle=orthogonalEdgeStyle;rounded=0;orthogonalLoop=1;jettySize=auto;html=1;startSize=3;endSize=3;" parent="1" source="14kvWUV_quERHJc_PtYc-37" target="14kvWUV_quERHJc_PtYc-6" edge="1">
          <mxGeometry relative="1" as="geometry" />
        </mxCell>
        <mxCell id="14kvWUV_quERHJc_PtYc-39" value="" style="edgeStyle=orthogonalEdgeStyle;rounded=0;orthogonalLoop=1;jettySize=auto;html=1;startSize=3;endSize=3;" parent="1" source="14kvWUV_quERHJc_PtYc-37" target="14kvWUV_quERHJc_PtYc-7" edge="1">
          <mxGeometry relative="1" as="geometry" />
        </mxCell>
        <mxCell id="14kvWUV_quERHJc_PtYc-37" value="写入读取" style="text;html=1;strokeColor=none;fillColor=none;align=center;verticalAlign=middle;whiteSpace=wrap;rounded=0;" parent="1" vertex="1">
          <mxGeometry x="630" y="240" width="40" height="20" as="geometry" />
        </mxCell>
      </root>
    </mxGraphModel>
  </diagram>
</mxfile>
